<svg width="18" height="19" viewBox="0 0 18 19" fill="none" xmlns="http://www.w3.org/2000/svg">
<path d="M9 2.46991C11.403 2.46991 11.688 2.47891 12.6375 2.52241C15.0765 2.63341 16.2157 3.79066 16.3267 6.21166C16.3702 7.16041 16.3785 7.44541 16.3785 9.84841C16.3785 12.2522 16.3695 12.5364 16.3267 13.4852C16.215 15.9039 15.0788 17.0634 12.6375 17.1744C11.688 17.2179 11.4045 17.2269 9 17.2269C6.597 17.2269 6.312 17.2179 5.36325 17.1744C2.91825 17.0627 1.785 15.9002 1.674 13.4844C1.6305 12.5357 1.6215 12.2514 1.6215 9.84766C1.6215 7.44466 1.63125 7.16041 1.674 6.21091C1.78575 3.79066 2.922 2.63266 5.36325 2.52166C6.31275 2.47891 6.597 2.46991 9 2.46991ZM9 0.847656C6.55575 0.847656 6.24975 0.858156 5.28975 0.901656C2.02125 1.05166 0.20475 2.86516 0.05475 6.13666C0.0105 7.09741 0 7.40341 0 9.84766C0 12.2919 0.0105 12.5987 0.054 13.5587C0.204 16.8272 2.0175 18.6437 5.289 18.7937C6.24975 18.8372 6.55575 18.8477 9 18.8477C11.4443 18.8477 11.751 18.8372 12.711 18.7937C15.9765 18.6437 17.7975 16.8302 17.9452 13.5587C17.9895 12.5987 18 12.2919 18 9.84766C18 7.40341 17.9895 7.09741 17.946 6.13741C17.799 2.87191 15.9832 1.05241 12.7118 0.902406C11.751 0.858156 11.4443 0.847656 9 0.847656V0.847656ZM9 5.22616C6.44775 5.22616 4.3785 7.29541 4.3785 9.84766C4.3785 12.3999 6.44775 14.4699 9 14.4699C11.5522 14.4699 13.6215 12.4007 13.6215 9.84766C13.6215 7.29541 11.5522 5.22616 9 5.22616ZM9 12.8477C7.34325 12.8477 6 11.5052 6 9.84766C6 8.19091 7.34325 6.84766 9 6.84766C10.6567 6.84766 12 8.19091 12 9.84766C12 11.5052 10.6567 12.8477 9 12.8477ZM13.8045 3.96391C13.2075 3.96391 12.7238 4.44766 12.7238 5.04391C12.7238 5.64016 13.2075 6.12391 13.8045 6.12391C14.4008 6.12391 14.8837 5.64016 14.8837 5.04391C14.8837 4.44766 14.4008 3.96391 13.8045 3.96391Z" fill="black"/>
</svg>
